<?xml version="1.0" standalone="no"?>
<!DOCTYPE svg PUBLIC "-//W3C//DTD SVG 20010904//EN"
 "http://www.w3.org/TR/2001/REC-SVG-20010904/DTD/svg10.dtd">
<svg version="1.0" xmlns="http://www.w3.org/2000/svg"
 width="256.000000pt" height="262.000000pt" viewBox="0 0 256.000000 262.000000"
 preserveAspectRatio="xMidYMid meet">

<g transform="translate(0.000000,262.000000) scale(0.100000,-0.100000)"
fill="#000000" stroke="none">
<path d="M2049 2616 c-2 -2 -61 -9 -131 -15 -253 -23 -488 -90 -717 -206 -209
-105 -367 -220 -547 -399 -177 -178 -300 -351 -409 -581 -127 -266 -193 -528
-210 -832 l-6 -103 134 0 135 0 6 31 c3 17 6 55 6 83 0 172 72 459 166 664 19
41 34 75 34 78 0 7 113 190 148 239 314 439 809 716 1345 751 l97 6 0 144 0
144 -23 0 c-13 0 -26 -2 -28 -4z"/>
<path d="M2220 2551 c0 -32 3 -39 15 -35 18 7 45 -12 45 -32 0 -9 -11 -14 -30
-14 -28 0 -30 -3 -30 -36 l0 -37 108 5 c90 4 116 9 165 32 56 27 58 29 55 64
-3 30 -9 38 -42 55 -21 11 -62 21 -90 23 -28 1 -84 5 -123 9 l-73 7 0 -41z
m253 -62 c-4 -4 -39 -11 -77 -15 -63 -6 -68 -6 -64 12 2 14 14 20 48 24 48 6
107 -7 93 -21z"/>
<path d="M2220 2310 l0 -40 75 0 75 0 0 -35 c0 -32 2 -35 30 -35 28 0 30 3 30
35 0 32 2 35 30 35 28 0 30 -3 30 -35 0 -32 2 -35 30 -35 l30 0 0 75 0 75
-165 0 -165 0 0 -40z"/>
<path d="M2495 2162 c-3 -3 -5 -14 -5 -24 0 -17 -11 -18 -135 -18 l-135 0 0
-35 0 -35 135 0 135 0 0 -25 c0 -21 5 -25 30 -25 l30 0 0 79 c0 76 -1 79 -25
83 -13 3 -27 3 -30 0z"/>
<path d="M1875 2151 c-68 -29 -119 -133 -95 -193 32 -80 83 -118 157 -118 74
0 153 83 153 160 0 43 -33 104 -71 131 -34 24 -110 35 -144 20z"/>
<path d="M2220 1890 c0 -78 1 -80 24 -80 21 0 25 5 28 38 3 37 3 37 51 40 l47
3 0 -41 c0 -39 1 -41 28 -38 23 3 27 8 30 41 3 34 6 37 33 37 27 0 29 -2 29
-40 0 -38 2 -40 30 -40 l30 0 0 80 0 80 -165 0 -165 0 0 -80z"/>
<path d="M1295 1907 c-41 -19 -82 -69 -96 -117 -22 -72 21 -159 95 -194 136
-64 274 88 206 228 -12 25 -35 55 -51 66 -37 27 -114 35 -154 17z"/>
<path d="M2220 1720 l0 -40 75 0 c57 0 75 -3 75 -14 0 -14 -42 -26 -90 -26
-50 0 -60 -9 -60 -52 0 -37 2 -40 23 -34 92 23 131 27 151 18 37 -18 55 -21
61 -12 4 6 17 10 30 10 45 0 65 35 65 117 l0 73 -165 0 -165 0 0 -40z m268
-57 c4 -24 -34 -39 -55 -21 -19 15 -16 27 10 38 30 12 41 7 45 -17z"/>
<path d="M1515 1530 c-49 -22 -95 -39 -101 -40 -40 -1 -29 -50 51 -235 7 -16
21 -52 30 -80 10 -27 21 -54 25 -60 4 -5 15 -32 25 -60 9 -27 23 -63 31 -80 7
-16 41 -100 74 -185 34 -85 76 -190 93 -233 l31 -77 158 0 158 0 0 485 0 485
-130 0 -130 0 0 -182 c0 -106 -4 -178 -9 -172 -5 5 -50 108 -101 229 -51 121
-98 225 -104 232 -8 9 -32 3 -101 -27z"/>
<path d="M2220 1480 l0 -40 74 0 73 0 6 -41 c7 -52 23 -69 67 -70 59 -2 68 0
90 23 16 18 20 35 20 95 l0 73 -165 0 -165 0 0 -40z m270 -61 c0 -17 -5 -20
-32 -17 -22 2 -34 9 -36 21 -3 14 4 17 32 17 30 0 36 -4 36 -21z"/>
<path d="M834 1400 c-46 -23 -84 -86 -84 -140 0 -79 77 -160 153 -160 159 0
216 221 77 299 -47 26 -93 27 -146 1z"/>
<path d="M2220 1249 l0 -40 73 2 c55 2 72 -1 72 -11 0 -17 -35 -28 -97 -29
l-48 -1 0 -43 0 -43 72 14 c57 12 79 12 105 3 41 -15 101 -5 131 22 19 18 22
31 22 94 l0 73 -165 0 -165 0 0 -41z m270 -53 c0 -17 -7 -25 -24 -28 -40 -8
-66 35 -28 45 41 11 52 7 52 -17z"/>
<path d="M2290 1041 c-51 -13 -62 -26 -68 -79 -4 -44 -1 -54 21 -76 25 -25 31
-26 142 -26 113 0 117 1 140 26 30 32 33 88 7 122 -10 13 -36 27 -57 32 -44
11 -146 11 -185 1z m178 -67 c13 -4 22 -14 22 -25 0 -17 -9 -19 -104 -19 -108
0 -137 10 -101 37 19 13 140 18 183 7z"/>
<path d="M652 812 c-76 -24 -134 -124 -111 -193 27 -79 81 -119 159 -119 88 0
150 55 158 140 5 58 -17 109 -63 145 -36 26 -103 39 -143 27z"/>
<path d="M2220 768 l0 -43 117 0 c74 0 118 -4 120 -11 6 -18 -69 -34 -156 -34
l-81 0 0 -40 0 -40 99 0 c84 0 102 -3 122 -20 28 -23 35 -21 -108 -20 l-113 1
0 -40 0 -41 165 0 165 0 0 53 c0 50 -2 53 -40 77 -46 28 -49 37 -17 50 48 20
57 35 57 94 l0 56 -165 0 -165 0 0 -42z"/>
<path d="M73 356 c-17 -8 -39 -26 -49 -41 -15 -23 -15 -29 -3 -52 8 -14 40
-48 71 -76 58 -50 75 -88 44 -100 -20 -8 -36 13 -36 45 0 27 -2 28 -45 28 -42
0 -45 -2 -45 -25 0 -34 25 -82 49 -95 11 -5 42 -10 69 -10 60 0 99 26 108 74
9 48 -17 90 -81 131 -56 36 -68 58 -38 69 16 7 43 -16 43 -36 0 -10 67 -11 73
0 8 15 -14 72 -32 81 -34 19 -95 22 -128 7z"/>
<path d="M1291 361 c-45 -13 -64 -53 -69 -146 -6 -109 10 -170 49 -190 33 -18
90 -20 106 -4 8 8 17 8 33 -1 33 -18 40 0 40 108 l0 92 -55 0 c-47 0 -55 -3
-55 -19 0 -10 7 -24 15 -31 19 -16 20 -74 1 -89 -7 -6 -21 -9 -30 -5 -13 5
-16 24 -16 115 l0 109 25 0 c20 0 25 -5 25 -25 0 -22 4 -25 39 -25 22 0 42 4
46 10 7 12 -17 71 -36 86 -19 15 -88 24 -118 15z"/>
<path d="M1843 359 c-49 -14 -66 -48 -71 -143 -7 -141 22 -186 121 -186 63 0
84 12 97 58 15 55 12 184 -5 225 -21 50 -71 66 -142 46z m65 -61 c8 -8 12 -46
12 -104 0 -72 -3 -94 -16 -105 -28 -23 -44 14 -44 104 0 99 17 136 48 105z"/>
<path d="M2400 364 c-62 -22 -80 -60 -80 -171 0 -122 29 -163 113 -163 38 0
53 5 72 25 24 23 25 30 25 139 0 105 -2 117 -22 140 -23 25 -78 40 -108 30z
m45 -170 c0 -90 -3 -109 -15 -109 -12 0 -16 19 -18 99 -3 107 1 130 21 123 8
-2 12 -34 12 -113z"/>
<path d="M534 351 c-2 -2 -4 -76 -4 -163 l0 -158 48 0 47 0 -3 62 c-4 101 34
123 44 27 10 -88 11 -89 52 -89 l39 0 -14 68 c-12 54 -12 74 -2 104 13 40 7
114 -10 131 -11 11 -188 27 -197 18z m134 -63 c18 -18 14 -46 -8 -58 -28 -15
-40 -5 -40 36 0 26 4 34 18 34 10 0 23 -5 30 -12z"/>
<path d="M848 352 l-38 -3 0 -160 0 -159 43 0 42 0 -2 161 c-1 89 -4 162 -5
163 -2 0 -20 0 -40 -2z"/>
<path d="M1514 351 c-2 -2 -4 -76 -4 -163 l0 -158 80 0 c73 0 83 3 105 25 19
19 25 35 25 70 0 26 -5 56 -11 67 -8 14 -8 23 0 31 16 16 13 79 -4 101 -12 16
-32 21 -101 26 -47 3 -87 3 -90 1z m122 -77 c7 -28 -16 -61 -35 -50 -12 8 -15
59 -4 69 14 15 33 6 39 -19z m0 -119 c15 -23 15 -27 0 -51 -22 -32 -40 -26
-44 15 -6 62 15 80 44 36z"/>
<path d="M290 191 l0 -161 40 0 39 0 3 72 3 73 49 7 c27 4 53 13 58 20 24 37
22 85 -6 123 -12 17 -28 21 -100 24 l-86 3 0 -161z m126 82 c8 -32 -20 -60
-43 -42 -14 12 -18 51 -6 62 16 17 43 6 49 -20z"/>
<path d="M960 190 l0 -160 40 0 40 0 0 95 c0 74 3 95 14 95 17 0 24 -26 33
-117 l6 -73 38 0 39 0 0 160 0 160 -41 0 c-40 0 -41 -1 -37 -30 7 -44 -9 -47
-33 -6 -18 32 -26 36 -60 36 l-39 0 0 -160z"/>
<path d="M2050 191 l0 -161 45 0 45 0 0 69 c0 61 11 93 26 78 3 -3 10 -37 16
-76 l10 -71 39 0 39 0 -6 42 c-3 24 -10 58 -16 76 -7 24 -6 37 3 48 7 9 13 38
13 65 0 73 -15 83 -124 87 l-90 4 0 -161z m141 87 c10 -18 8 -24 -11 -40 -29
-23 -40 -15 -40 28 0 27 4 34 20 34 10 0 25 -10 31 -22z"/>
</g>
</svg>
